# xmcd CD database file
# 
# Track frame offsets:
# 	225
# 	12635
# 	25195
# 	37563
# 	46904
# 	61715
# 	75159
# 	86537
# 	97758
# 	109842
# 	119159
# 	130548
# 	141978
# 	154748
# 	164953
# 	176413
# 	190341
# 	200982
# 	212936
# 	223986
# 
# Disc length: 3160 seconds
# 
# Submitted via: Nero 5.5.7.3
# 
# Revision: 0
# Processed by: cddbd v1.4PL0 Copyright (c) Steve Scherf et al.
#
DISCID=1a0c5514
DTITLE=Various Artist - Dvorana slavy 3
DYEAR=1900
DGENRE=
TTITLE0=Hank Williams - Lovesick Blues
TTITLE1=Johnny Cash - Folsom Prison Blues
TTITLE2=Patsy Cline - Crazy
TTITLE3=Roy Drusky - Peel Me A Nanner
TTITLE4=Johnny Horton - Sink The Bismarck
TTITLE5=Claude king - Wolwerton Mountain
TTITLE6=Buck Owens - Cryin' Time
TTITLE7=Hank Snow - A Fool Such As I
TTITLE8=Sons Of The Pioneers - I Hang Up My Head And Cry
TTITLE9=Flatt and Scruggs - The Ballad Of Jed Clampett
TTITLE10=Bill Monroe - New Mule Skinner Blues
TTITLE11=Don Gibson - Sea Of Heartbreak
TTITLE12=Eddy Arnold - I Really Don't Want To Know
TTITLE13=Carl Perkins - Blue Suede Shoes
TTITLE14=Jim Reeves - Adios Amigos
TTITLE15=Kingston Trio - Tom Dooley
TTITLE16=Roger Miller - When Two Worlds Collide
TTITLE17=Skeeter Davis - The End Of The World
TTITLE18=Elvis Presley - Mystery train
TTITLE19=Hank Williams - Mind Your Own Business
EXTD=
EXTT0=
EXTT1=
EXTT2=
EXTT3=
EXTT4=
EXTT5=
EXTT6=
EXTT7=
EXTT8=
EXTT9=
EXTT10=
EXTT11=
EXTT12=
EXTT13=
EXTT14=
EXTT15=
EXTT16=
EXTT17=
EXTT18=
EXTT19=
PLAYORDER=
